<?xml version="1.0" encoding="UTF-8"?>
<svg width="15px" height="20px" viewBox="0 0 15 20" version="1.1" xmlns="http://www.w3.org/2000/svg" xmlns:xlink="http://www.w3.org/1999/xlink">
    <!-- Generator: sketchtool 42 (36781) - http://www.bohemiancoding.com/sketch -->
    <title>C6DEF3AB-C879-4DFF-8984-91FBCF31BF59</title>
    <desc>Created with sketchtool.</desc>
    <defs></defs>
    <g id="Options" stroke="none" stroke-width="1" fill="none" fill-rule="evenodd">
        <g id="Restaurant-page-1400-Copy" transform="translate(-350.000000, -268.000000)" fill-rule="nonzero" fill="#BD2333">
            <g id="marker" transform="translate(350.000000, 268.000000)">
                <g id="Layer_1">
                    <path d="M7.24038462,0 C3.92884615,0 0.0576923077,1.97884615 0.0576923077,7.5 C0.0576923077,12.8192308 6.34615385,19.0384615 6.59423077,19.3153846 C6.75426897,19.5067628 6.99090951,19.6173522 7.24038462,19.6173522 C7.48985972,19.6173522 7.72650026,19.5067628 7.88653846,19.3153846 C8.14615385,19.0384615 14.4230769,12.8192308 14.4230769,7.5 C14.4230769,1.97884615 10.5519231,0 7.24038462,0 Z M7.24038462,17.6423077 C5.69423077,15.9634615 1.60961538,11.1057692 1.60961538,7.44807692 C1.60961538,2.25576923 5.99423077,1.53461538 7.24038462,1.53461538 C8.48653846,1.53461538 12.9115385,2.30769231 12.9115385,7.5 C12.9115385,11.1576923 8.76923077,15.9692308 7.21730769,17.6423077 L7.24038462,17.6423077 Z" id="Shape"></path>
                    <path d="M7.24038462,3.46153846 C5.19879863,3.47430089 3.55380524,5.13910721 3.5654853,7.18069967 C3.57716535,9.22229214 5.24109933,10.8681679 7.2826977,10.8575702 C9.32429607,10.8469726 10.9710538,9.18391139 10.9615385,7.14230769 C10.9363,5.10427689 9.27856948,3.46453728 7.24038462,3.46153846 Z M7.24038462,9.48461538 C5.97993506,9.45130892 4.96599877,8.43737263 4.93269231,7.17692308 C4.93269231,5.90241981 5.96588135,4.86923077 7.24038462,4.86923077 C8.51488788,4.86923077 9.54807692,5.90241981 9.54807692,7.17692308 C9.53542147,8.44240509 8.50592991,9.46160174 7.24038462,9.46153846 L7.24038462,9.48461538 Z" id="Shape"></path>
                </g>
            </g>
        </g>
    </g>
</svg>